<svg id="Layer_1" data-name="Layer 1" xmlns="http://www.w3.org/2000/svg" viewBox="0 0 253 384"><defs><style>.cls-1,.cls-3{stroke:#231f20;stroke-miterlimit:10;}.cls-2{fill:#231f20;}.cls-3{fill:#ee2d2c;}</style></defs><title>Artboard 1</title><ellipse class="cls-1" cx="177.5" cy="228.5" rx="75.5" ry="155.5"/><path class="cls-2" d="M187.2,92.28C184,71.93,169.32,55.56,155.06,41.67a231.14,231.14,0,0,0-23.92-20.28C122.85,15.27,114,8.81,104.35,5c-19.69-7.74-36,5.9-47,21.23C46.06,42.09,39.2,62.44,40.06,82c.43,9.76,4.92,16.28,12.45,22.15,7.37,5.74,13.92,11,17.37,20a41.26,41.26,0,0,1,1.28,25.31c-2.5,9.23-8.29,15.68-15.56,21.56-6.37,5.15-13.34,10.2-16.73,17.95-3.66,8.37-2,17.41,1.6,25.5,4.44,10.1,11.18,19.06,16.53,28.68a195.3,195.3,0,0,1,14.4,32c3.77,11.11,9,26.87-.69,36.52-11.77,11.74-26-3.58-32.4-13.06-13.72-20.28-27.77-41.55-31.5-66.25-.48-3.17-5.3-1.82-4.82,1.33C5.22,255.12,16.14,274,27.81,291.85c8.42,12.88,22.94,36.88,42,26.76s9.61-37.18,3.69-52.3a214.91,214.91,0,0,0-13.91-28.78c-5.56-9.67-12.88-18.9-16.29-29.64-3.63-11.44.5-20.38,9.19-27.88,6.38-5.5,13.45-10.13,18.19-17.26,8.67-13,9-30.92,1.94-44.71-3.93-7.63-10.16-12.46-16.79-17.62-4.09-3.19-8-6.67-9.68-11.76s-1.23-11.15-.73-16.5c2-21.07,12-43,28.33-56.73,4.67-3.94,10.35-7.22,16.54-7.82,6.89-.67,13.44,2.17,19.29,5.49a200.24,200.24,0,0,1,30.93,22c17.72,15.12,38.06,34.4,41.9,58.46.51,3.17,5.32,1.82,4.82-1.33Z"/><ellipse class="cls-3" cx="179" cy="233.58" rx="50" ry="84.58"/></svg>